%TF.GenerationSoftware,KiCad,Pcbnew,(6.0.5)*%
%TF.CreationDate,2022-07-18T13:28:33+02:00*%
%TF.ProjectId,cantorplus,63616e74-6f72-4706-9c75-732e6b696361,rev1.0*%
%TF.SameCoordinates,Original*%
%TF.FileFunction,Soldermask,Bot*%
%TF.FilePolarity,Negative*%
%FSLAX46Y46*%
G04 Gerber Fmt 4.6, Leading zero omitted, Abs format (unit mm)*
G04 Created by KiCad (PCBNEW (6.0.5)) date 2022-07-18 13:28:33*
%MOMM*%
%LPD*%
G01*
G04 APERTURE LIST*
%ADD10C,1.701800*%
%ADD11C,3.429000*%
%ADD12C,0.990600*%
%ADD13C,2.032000*%
%ADD14C,0.800000*%
%ADD15O,2.000000X1.600000*%
%ADD16R,1.700000X1.700000*%
%ADD17C,1.700000*%
G04 APERTURE END LIST*
D10*
%TO.C,K25*%
X158500000Y-94000000D03*
D11*
X164000000Y-94000000D03*
D12*
X169220000Y-89800000D03*
D10*
X169500000Y-94000000D03*
D12*
X158780000Y-89800000D03*
D13*
X164000000Y-99900000D03*
X169000000Y-97800000D03*
X159000000Y-97800000D03*
%TD*%
D12*
%TO.C,K24*%
X140780000Y-85680000D03*
X151220000Y-85680000D03*
D10*
X151500000Y-89880000D03*
X140500000Y-89880000D03*
D11*
X146000000Y-89880000D03*
D13*
X146000000Y-95780000D03*
X151000000Y-93680000D03*
X141000000Y-93680000D03*
%TD*%
D11*
%TO.C,K21*%
X92000000Y-101880000D03*
D12*
X86780000Y-97680000D03*
X97220000Y-97680000D03*
D10*
X86500000Y-101880000D03*
X97500000Y-101880000D03*
D13*
X92000000Y-107780000D03*
X87000000Y-105680000D03*
X97000000Y-105680000D03*
%TD*%
D10*
%TO.C,K02*%
X115500000Y-55880000D03*
X104500000Y-55880000D03*
D12*
X115220000Y-51680000D03*
X104780000Y-51680000D03*
D11*
X110000000Y-55880000D03*
D13*
X110000000Y-61780000D03*
X115000000Y-59680000D03*
X105000000Y-59680000D03*
%TD*%
D12*
%TO.C,K10*%
X68780000Y-82800000D03*
D11*
X74000000Y-87000000D03*
D10*
X68500000Y-87000000D03*
D12*
X79220000Y-82800000D03*
D10*
X79500000Y-87000000D03*
D13*
X74000000Y-92900000D03*
X69000000Y-90800000D03*
X79000000Y-90800000D03*
%TD*%
D11*
%TO.C,K04*%
X146000000Y-55880000D03*
D10*
X140500000Y-55880000D03*
D12*
X140780000Y-51680000D03*
X151220000Y-51680000D03*
D10*
X151500000Y-55880000D03*
D13*
X146000000Y-61780000D03*
X141000000Y-59680000D03*
X151000000Y-59680000D03*
%TD*%
D10*
%TO.C,K12*%
X115500000Y-72880000D03*
D12*
X104780000Y-68680000D03*
D11*
X110000000Y-72880000D03*
D12*
X115220000Y-68680000D03*
D10*
X104500000Y-72880000D03*
D13*
X110000000Y-78780000D03*
X105000000Y-76680000D03*
X115000000Y-76680000D03*
%TD*%
D10*
%TO.C,K30*%
X146479071Y-112520643D03*
D12*
X135433810Y-109270935D03*
D10*
X135520929Y-113479357D03*
D11*
X141000000Y-113000000D03*
D12*
X145834082Y-108361029D03*
D13*
X141514219Y-118877549D03*
X146312165Y-116349761D03*
X136350218Y-117221319D03*
%TD*%
D12*
%TO.C,K01*%
X86780000Y-63680000D03*
D10*
X86500000Y-67880000D03*
X97500000Y-67880000D03*
D11*
X92000000Y-67880000D03*
D12*
X97220000Y-63680000D03*
D13*
X92000000Y-73780000D03*
X87000000Y-71680000D03*
X97000000Y-71680000D03*
%TD*%
D11*
%TO.C,K14*%
X146000000Y-72880000D03*
D12*
X140780000Y-68680000D03*
D10*
X140500000Y-72880000D03*
X151500000Y-72880000D03*
D12*
X151220000Y-68680000D03*
D13*
X146000000Y-78780000D03*
X141000000Y-76680000D03*
X151000000Y-76680000D03*
%TD*%
D10*
%TO.C,K23*%
X122500000Y-84880000D03*
D12*
X122780000Y-80680000D03*
D11*
X128000000Y-84880000D03*
D10*
X133500000Y-84880000D03*
D12*
X133220000Y-80680000D03*
D13*
X128000000Y-90780000D03*
X133000000Y-88680000D03*
X123000000Y-88680000D03*
%TD*%
D11*
%TO.C,K03*%
X128000000Y-50880000D03*
D10*
X133500000Y-50880000D03*
X122500000Y-50880000D03*
D12*
X133220000Y-46680000D03*
X122780000Y-46680000D03*
D13*
X128000000Y-56780000D03*
X133000000Y-54680000D03*
X123000000Y-54680000D03*
%TD*%
D10*
%TO.C,K22*%
X115500000Y-89880000D03*
D12*
X115220000Y-85680000D03*
D10*
X104500000Y-89880000D03*
D11*
X110000000Y-89880000D03*
D12*
X104780000Y-85680000D03*
D13*
X110000000Y-95780000D03*
X105000000Y-93680000D03*
X115000000Y-93680000D03*
%TD*%
D14*
%TO.C,J1*%
X201250000Y-110100000D03*
X194250000Y-108000000D03*
X194250000Y-110100000D03*
X201250000Y-108000000D03*
D15*
X191550000Y-107800000D03*
X191550000Y-110300000D03*
X192650000Y-112400000D03*
X192650000Y-105700000D03*
X199650000Y-112400000D03*
X196650000Y-105700000D03*
X196650000Y-112400000D03*
X199650000Y-105700000D03*
%TD*%
D11*
%TO.C,K15*%
X164000000Y-77000000D03*
D12*
X158780000Y-72800000D03*
D10*
X158500000Y-77000000D03*
D12*
X169220000Y-72800000D03*
D10*
X169500000Y-77000000D03*
D13*
X164000000Y-82900000D03*
X159000000Y-80800000D03*
X169000000Y-80800000D03*
%TD*%
D12*
%TO.C,K32*%
X190505923Y-119399575D03*
D10*
X188984693Y-123324400D03*
D12*
X181044070Y-114987440D03*
D10*
X179015307Y-118675600D03*
D11*
X184000000Y-121000000D03*
D13*
X181506552Y-126347216D03*
X186925590Y-126557061D03*
X177862512Y-122330878D03*
%TD*%
D10*
%TO.C,K11*%
X97500000Y-84880000D03*
D11*
X92000000Y-84880000D03*
D12*
X86780000Y-80680000D03*
X97220000Y-80680000D03*
D10*
X86500000Y-84880000D03*
D13*
X92000000Y-90780000D03*
X97000000Y-88680000D03*
X87000000Y-88680000D03*
%TD*%
D16*
%TO.C,U1*%
X179035000Y-53020000D03*
X196935000Y-53000000D03*
D17*
X196935000Y-55540000D03*
X179035000Y-55560000D03*
X179035000Y-58100000D03*
X196935000Y-58080000D03*
X196935000Y-60620000D03*
X179035000Y-60640000D03*
X179035000Y-63180000D03*
X196935000Y-63160000D03*
X196935000Y-65700000D03*
X179035000Y-65720000D03*
X196935000Y-68240000D03*
X179035000Y-68260000D03*
X196935000Y-70780000D03*
X179035000Y-70800000D03*
X179035000Y-73340000D03*
X196935000Y-73320000D03*
X196935000Y-75860000D03*
X179035000Y-75880000D03*
X179035000Y-78420000D03*
X196935000Y-78400000D03*
X179035000Y-80960000D03*
X196935000Y-80940000D03*
X196935000Y-83480000D03*
X179035000Y-83500000D03*
X179035000Y-86040000D03*
X196935000Y-86020000D03*
X179035000Y-88580000D03*
X196935000Y-88560000D03*
X196935000Y-91100000D03*
X179035000Y-91120000D03*
X196935000Y-93640000D03*
X179035000Y-93660000D03*
X179035000Y-96200000D03*
X196935000Y-96180000D03*
X196935000Y-98720000D03*
X179035000Y-98740000D03*
X196935000Y-101260000D03*
X179035000Y-101280000D03*
X194275000Y-101280000D03*
X181695000Y-101260000D03*
X181695000Y-98720000D03*
X194275000Y-98740000D03*
X181695000Y-96180000D03*
X194275000Y-96200000D03*
X194275000Y-93660000D03*
X181695000Y-93640000D03*
X194275000Y-91120000D03*
X181695000Y-91100000D03*
X194275000Y-88580000D03*
X181695000Y-88560000D03*
X194275000Y-86040000D03*
X181695000Y-86020000D03*
X194275000Y-83500000D03*
X181695000Y-83480000D03*
X181695000Y-80940000D03*
X194275000Y-80960000D03*
X181695000Y-78400000D03*
X194275000Y-78420000D03*
X194275000Y-75880000D03*
X181695000Y-75860000D03*
X181695000Y-73320000D03*
X194275000Y-73340000D03*
X181695000Y-70780000D03*
X194275000Y-70800000D03*
X194275000Y-68260000D03*
X181695000Y-68240000D03*
X194275000Y-65720000D03*
X181695000Y-65700000D03*
X181695000Y-63160000D03*
X194275000Y-63180000D03*
X194275000Y-60640000D03*
X181695000Y-60620000D03*
X181695000Y-58080000D03*
X194275000Y-58100000D03*
X181695000Y-55540000D03*
X194275000Y-55560000D03*
X181695000Y-53000000D03*
X194275000Y-53020000D03*
%TD*%
D10*
%TO.C,K05*%
X169500000Y-60000000D03*
D12*
X169220000Y-55800000D03*
X158780000Y-55800000D03*
D11*
X164000000Y-60000000D03*
D10*
X158500000Y-60000000D03*
D13*
X164000000Y-65900000D03*
X169000000Y-63800000D03*
X159000000Y-63800000D03*
%TD*%
D10*
%TO.C,K20*%
X79500000Y-104000000D03*
D12*
X68780000Y-99800000D03*
D11*
X74000000Y-104000000D03*
D10*
X68500000Y-104000000D03*
D12*
X79220000Y-99800000D03*
D13*
X74000000Y-109900000D03*
X79000000Y-107800000D03*
X69000000Y-107800000D03*
%TD*%
D12*
%TO.C,K13*%
X122780000Y-63680000D03*
D11*
X128000000Y-67880000D03*
D10*
X122500000Y-67880000D03*
D12*
X133220000Y-63680000D03*
D10*
X133500000Y-67880000D03*
D13*
X128000000Y-73780000D03*
X123000000Y-71680000D03*
X133000000Y-71680000D03*
%TD*%
D10*
%TO.C,K00*%
X68500000Y-70000000D03*
X79500000Y-70000000D03*
D11*
X74000000Y-70000000D03*
D12*
X68780000Y-65800000D03*
X79220000Y-65800000D03*
D13*
X74000000Y-75900000D03*
X69000000Y-73800000D03*
X79000000Y-73800000D03*
%TD*%
D11*
%TO.C,K31*%
X163000000Y-114000000D03*
D12*
X158588626Y-108957364D03*
D10*
X168416443Y-114955065D03*
X157583557Y-113044935D03*
D12*
X168870019Y-110770251D03*
D13*
X161975476Y-119810366D03*
X167264176Y-118610510D03*
X157416098Y-116874029D03*
%TD*%
M02*
