M48
; DRILL file {KiCad (6.0.5)} date Mon Jul 18 13:29:41 2022
; FORMAT={-:-/ absolute / metric / decimal}
; #@! TF.CreationDate,2022-07-18T13:29:41+02:00
; #@! TF.GenerationSoftware,Kicad,Pcbnew,(6.0.5)
; #@! TF.FileFunction,NonPlated,1,2,NPTH
FMAT,2
METRIC
; #@! TA.AperFunction,NonPlated,NPTH,ComponentDrill
T1C0.800
; #@! TA.AperFunction,NonPlated,NPTH,ComponentDrill
T2C0.991
; #@! TA.AperFunction,NonPlated,NPTH,ComponentDrill
T3C1.702
; #@! TA.AperFunction,NonPlated,NPTH,ComponentDrill
T4C3.429
%
G90
G05
T1
X194.25Y-108.0
X194.25Y-110.1
X201.25Y-108.0
X201.25Y-110.1
T2
X68.78Y-65.8
X68.78Y-82.8
X68.78Y-99.8
X79.22Y-65.8
X79.22Y-82.8
X79.22Y-99.8
X86.78Y-63.68
X86.78Y-80.68
X86.78Y-97.68
X97.22Y-63.68
X97.22Y-80.68
X97.22Y-97.68
X104.78Y-51.68
X104.78Y-68.68
X104.78Y-85.68
X115.22Y-51.68
X115.22Y-68.68
X115.22Y-85.68
X122.78Y-46.68
X122.78Y-63.68
X122.78Y-80.68
X133.22Y-46.68
X133.22Y-63.68
X133.22Y-80.68
X135.434Y-109.271
X140.78Y-51.68
X140.78Y-68.68
X140.78Y-85.68
X145.834Y-108.361
X151.22Y-51.68
X151.22Y-68.68
X151.22Y-85.68
X158.589Y-108.957
X158.78Y-55.8
X158.78Y-72.8
X158.78Y-89.8
X168.87Y-110.77
X169.22Y-55.8
X169.22Y-72.8
X169.22Y-89.8
X181.044Y-114.987
X190.506Y-119.4
T3
X68.5Y-70.0
X68.5Y-87.0
X68.5Y-104.0
X79.5Y-70.0
X79.5Y-87.0
X79.5Y-104.0
X86.5Y-67.88
X86.5Y-84.88
X86.5Y-101.88
X97.5Y-67.88
X97.5Y-84.88
X97.5Y-101.88
X104.5Y-55.88
X104.5Y-72.88
X104.5Y-89.88
X115.5Y-55.88
X115.5Y-72.88
X115.5Y-89.88
X122.5Y-50.88
X122.5Y-67.88
X122.5Y-84.88
X133.5Y-50.88
X133.5Y-67.88
X133.5Y-84.88
X135.521Y-113.479
X140.5Y-55.88
X140.5Y-72.88
X140.5Y-89.88
X146.479Y-112.521
X151.5Y-55.88
X151.5Y-72.88
X151.5Y-89.88
X157.584Y-113.045
X158.5Y-60.0
X158.5Y-77.0
X158.5Y-94.0
X168.416Y-114.955
X169.5Y-60.0
X169.5Y-77.0
X169.5Y-94.0
X179.015Y-118.676
X188.985Y-123.324
T4
X74.0Y-70.0
X74.0Y-87.0
X74.0Y-104.0
X92.0Y-67.88
X92.0Y-84.88
X92.0Y-101.88
X110.0Y-55.88
X110.0Y-72.88
X110.0Y-89.88
X128.0Y-50.88
X128.0Y-67.88
X128.0Y-84.88
X141.0Y-113.0
X146.0Y-55.88
X146.0Y-72.88
X146.0Y-89.88
X163.0Y-114.0
X164.0Y-60.0
X164.0Y-77.0
X164.0Y-94.0
X184.0Y-121.0
T0
M30
