M48
; DRILL file {KiCad (6.0.5)} date Mon Jul 18 13:29:41 2022
; FORMAT={-:-/ absolute / metric / decimal}
; #@! TF.CreationDate,2022-07-18T13:29:41+02:00
; #@! TF.GenerationSoftware,Kicad,Pcbnew,(6.0.5)
; #@! TF.FileFunction,Plated,1,2,PTH
FMAT,2
METRIC
; #@! TA.AperFunction,Plated,PTH,ViaDrill
T1C0.400
; #@! TA.AperFunction,Plated,PTH,ComponentDrill
T2C0.900
; #@! TA.AperFunction,Plated,PTH,ComponentDrill
T3C1.000
; #@! TA.AperFunction,Plated,PTH,ComponentDrill
T4C1.270
%
G90
G05
T1
X176.0Y-69.8
X176.3Y-86.7
X176.75Y-65.85
X177.1Y-82.5
X184.93Y-97.6
X185.42Y-74.74
X190.45Y-72.75
X199.93Y-84.85
X199.98Y-56.76
T3
X179.035Y-53.02
X179.035Y-55.56
X179.035Y-58.1
X179.035Y-60.64
X179.035Y-63.18
X179.035Y-65.72
X179.035Y-68.26
X179.035Y-70.8
X179.035Y-73.34
X179.035Y-75.88
X179.035Y-78.42
X179.035Y-80.96
X179.035Y-83.5
X179.035Y-86.04
X179.035Y-88.58
X179.035Y-91.12
X179.035Y-93.66
X179.035Y-96.2
X179.035Y-98.74
X179.035Y-101.28
X181.695Y-53.0
X181.695Y-55.54
X181.695Y-58.08
X181.695Y-60.62
X181.695Y-63.16
X181.695Y-65.7
X181.695Y-68.24
X181.695Y-70.78
X181.695Y-73.32
X181.695Y-75.86
X181.695Y-78.4
X181.695Y-80.94
X181.695Y-83.48
X181.695Y-86.02
X181.695Y-88.56
X181.695Y-91.1
X181.695Y-93.64
X181.695Y-96.18
X181.695Y-98.72
X181.695Y-101.26
X194.275Y-53.02
X194.275Y-55.56
X194.275Y-58.1
X194.275Y-60.64
X194.275Y-63.18
X194.275Y-65.72
X194.275Y-68.26
X194.275Y-70.8
X194.275Y-73.34
X194.275Y-75.88
X194.275Y-78.42
X194.275Y-80.96
X194.275Y-83.5
X194.275Y-86.04
X194.275Y-88.58
X194.275Y-91.12
X194.275Y-93.66
X194.275Y-96.2
X194.275Y-98.74
X194.275Y-101.28
X196.935Y-53.0
X196.935Y-55.54
X196.935Y-58.08
X196.935Y-60.62
X196.935Y-63.16
X196.935Y-65.7
X196.935Y-68.24
X196.935Y-70.78
X196.935Y-73.32
X196.935Y-75.86
X196.935Y-78.4
X196.935Y-80.94
X196.935Y-83.48
X196.935Y-86.02
X196.935Y-88.56
X196.935Y-91.1
X196.935Y-93.64
X196.935Y-96.18
X196.935Y-98.72
X196.935Y-101.26
T4
X69.0Y-73.8
X69.0Y-90.8
X69.0Y-107.8
X74.0Y-75.9
X74.0Y-92.9
X74.0Y-109.9
X79.0Y-73.8
X79.0Y-90.8
X79.0Y-107.8
X87.0Y-71.68
X87.0Y-88.68
X87.0Y-105.68
X92.0Y-73.78
X92.0Y-90.78
X92.0Y-107.78
X97.0Y-71.68
X97.0Y-88.68
X97.0Y-105.68
X105.0Y-59.68
X105.0Y-76.68
X105.0Y-93.68
X110.0Y-61.78
X110.0Y-78.78
X110.0Y-95.78
X115.0Y-59.68
X115.0Y-76.68
X115.0Y-93.68
X123.0Y-54.68
X123.0Y-71.68
X123.0Y-88.68
X128.0Y-56.78
X128.0Y-73.78
X128.0Y-90.78
X133.0Y-54.68
X133.0Y-71.68
X133.0Y-88.68
X136.35Y-117.221
X141.0Y-59.68
X141.0Y-76.68
X141.0Y-93.68
X141.514Y-118.878
X146.0Y-61.78
X146.0Y-78.78
X146.0Y-95.78
X146.312Y-116.35
X151.0Y-59.68
X151.0Y-76.68
X151.0Y-93.68
X157.416Y-116.874
X159.0Y-63.8
X159.0Y-80.8
X159.0Y-97.8
X161.975Y-119.81
X164.0Y-65.9
X164.0Y-82.9
X164.0Y-99.9
X167.264Y-118.611
X169.0Y-63.8
X169.0Y-80.8
X169.0Y-97.8
X177.863Y-122.331
X181.507Y-126.347
X186.926Y-126.557
T2
X191.75Y-107.8G85X191.35Y-107.8
G05
X191.75Y-110.3G85X191.35Y-110.3
G05
X192.85Y-105.7G85X192.45Y-105.7
G05
X192.85Y-112.4G85X192.45Y-112.4
G05
X196.85Y-105.7G85X196.45Y-105.7
G05
X196.85Y-112.4G85X196.45Y-112.4
G05
X199.85Y-105.7G85X199.45Y-105.7
G05
X199.85Y-112.4G85X199.45Y-112.4
G05
T0
M30
